HIERARCHY
ROOT Hips
{
 OFFSET 0.000000 0.000000 0.000000
 CHANNELS 6 Xposition Yposition Zposition Yrotation Xrotation Zrotation
 JOINT Chest
 {
  OFFSET 0.000000 9.581000 -0.001100
  CHANNELS 3 Yrotation Xrotation Zrotation
  JOINT Chest2
  {
   OFFSET 0.000000 9.561100 0.002200
   CHANNELS 3 Yrotation Xrotation Zrotation
   JOINT Chest3
   {
    OFFSET 0.000000 9.521100 0.000000
    CHANNELS 3 Yrotation Xrotation Zrotation
    JOINT Chest4
    {
     OFFSET 0.000000 9.511400 0.000000
     CHANNELS 3 Yrotation Xrotation Zrotation
     JOINT Neck
     {
      OFFSET 0.000000 14.375100 0.000000
      CHANNELS 3 Yrotation Xrotation Zrotation
      JOINT Head
      {
       OFFSET 0.000000 8.901200 0.004600
       CHANNELS 3 Yrotation Xrotation Zrotation
       End Site
       {
        OFFSET 0.000000 16.962200 0.002400
       }
      }
     }
     JOINT RightCollar
     {
      OFFSET -2.920100 9.518800 0.000000
      CHANNELS 3 Yrotation Xrotation Zrotation
      JOINT RightShoulder
      {
       OFFSET -13.664500 0.000000 0.000000
       CHANNELS 3 Yrotation Xrotation Zrotation
       JOINT RightElbow
       {
        OFFSET 0.000000 -29.999200 0.000000
        CHANNELS 3 Yrotation Xrotation Zrotation
        JOINT RightWrist
        {
         OFFSET 0.000000 -24.253600 0.000000
         CHANNELS 3 Yrotation Xrotation Zrotation
         End Site
         {
          OFFSET 0.000000 -17.918900 0.000000
         }
        }
       }
      }
     }
     JOINT LeftCollar
     {
      OFFSET 2.920100 9.518800 0.000000
      CHANNELS 3 Yrotation Xrotation Zrotation
      JOINT LeftShoulder
      {
       OFFSET 13.664500 0.000000 0.000000
       CHANNELS 3 Yrotation Xrotation Zrotation
       JOINT LeftElbow
       {
        OFFSET 0.000000 -29.999200 0.000000
        CHANNELS 3 Yrotation Xrotation Zrotation
        JOINT LeftWrist
        {
         OFFSET 0.000000 -24.253600 0.000000
         CHANNELS 3 Yrotation Xrotation Zrotation
         End Site
         {
          OFFSET 0.000000 -17.918900 0.000000
         }
        }
       }
      }
     }
    }
   }
  }
 }
 JOINT RightHip
 {
  OFFSET -7.797300 0.005300 0.000500
  CHANNELS 3 Yrotation Xrotation Zrotation
  JOINT RightKnee
  {
   OFFSET 0.000000 -40.663400 -0.000500
   CHANNELS 3 Yrotation Xrotation Zrotation
   JOINT RightAnkle
   {
    OFFSET 0.000000 -39.523700 -0.000900
    CHANNELS 3 Yrotation Xrotation Zrotation
    JOINT RightToe
    {
     OFFSET 0.000000 -6.418000 14.485300
     CHANNELS 3 Yrotation Xrotation Zrotation
     End Site
     {
      OFFSET 0.000000 -1.465200 6.326400
     }
    }
   }
  }
 }
 JOINT LeftHip
 {
  OFFSET 7.797300 0.005300 0.000500
  CHANNELS 3 Yrotation Xrotation Zrotation
  JOINT LeftKnee
  {
   OFFSET 0.000000 -40.663400 -0.000500
   CHANNELS 3 Yrotation Xrotation Zrotation
   JOINT LeftAnkle
   {
    OFFSET 0.000000 -39.523700 -0.000900
    CHANNELS 3 Yrotation Xrotation Zrotation
    JOINT LeftToe
    {
     OFFSET 0.000000 -6.418000 14.485300
     CHANNELS 3 Yrotation Xrotation Zrotation
     End Site
     {
      OFFSET 0.000000 -1.465200 6.326400
     }
    }
   }
  }
 }
}
MOTION
Frames: 6
Frame Time: 0.008333
-22.200730 126.541296 73.510097 -175.040702 -31.283066 -2.725227 -2.832576 20.093207 -1.205400 -0.331961 2.526744 -0.095991 -0.524845 4.138525 -0.154590 -2.406945 17.261651 -0.972140 1.217994 18.388353 0.173243 1.245012 -6.350080 -0.094078 -7.142197 -4.319798 -3.591564 9.021038 7.067377 -22.025384 120.399191 -78.243645 -72.796798 0.110574 -33.523743 -43.006711 -7.130653 -0.618418 -0.357396 4.880028 -12.851761 8.539574 -135.821786 -74.236168 128.762035 -19.056607 -25.459042 35.044078 -3.915894 -56.145970 4.050358 -35.696799 72.100428 -33.720824 20.349602 34.684672 10.577993 0.062725 -0.041912 0.027774 -9.252800 -45.033035 -5.659982 32.839255 75.840347 21.181856 1.483364 -0.700757 9.748767 0.063973 0.048823 0.028366
-22.199530 126.545100 73.512918 -174.963850 -31.335725 -2.726172 -2.837024 20.119586 -1.185068 -0.313901 2.525913 -0.084139 -0.544872 4.152907 -0.161648 -2.406229 17.277070 -0.960721 1.276119 18.329905 0.170426 1.306731 -6.413869 -0.110220 -7.200286 -4.315924 -3.607399 9.030047 7.063836 -22.003532 120.512684 -78.235103 -72.963550 0.112260 -33.530927 -42.999780 -7.072847 -0.618526 -0.375058 4.878403 -12.816040 8.551291 -136.124015 -74.232935 128.980635 -19.028799 -25.538562 34.857721 -3.703885 -56.141428 3.864432 -35.855668 72.111135 -33.866927 20.390654 34.715800 10.749977 0.058654 -0.024631 0.025978 -9.244019 -44.957109 -5.688136 32.625716 75.821786 20.922032 1.482785 -0.676786 9.773263 0.059575 0.050013 0.026417
-22.196949 126.548760 73.516080 -174.891249 -31.385371 -2.737322 -2.817806 20.137158 -1.136888 -0.364609 2.549636 -0.112186 -0.511521 4.150647 -0.140228 -2.406875 17.292876 -0.948629 1.334255 18.267032 0.165191 1.368950 -6.482353 -0.128868 -7.201821 -4.290437 -3.603265 8.976871 7.046607 -22.010729 120.588697 -78.216846 -73.082905 0.116693 -33.533514 -42.997123 -7.018118 -0.621766 -0.388898 4.880902 -12.770262 8.558945 -136.436520 -74.228958 129.214653 -18.990376 -25.625998 34.659512 -3.535431 -56.131283 3.705638 -36.070044 72.116817 -34.033002 20.377877 34.742604 10.846401 0.062493 -0.011949 0.027683 -9.244399 -44.889031 -5.705326 32.436382 75.811207 20.689162 1.489435 -0.656650 9.817243 0.048758 0.044799 0.021620
-22.199593 126.551010 73.521204 -174.812246 -31.420712 -2.723714 -2.835223 20.147787 -1.137101 -0.347414 2.549136 -0.100003 -0.531472 4.163647 -0.147543 -2.408740 17.306831 -0.937577 1.391345 18.203940 0.158565 1.430426 -6.550980 -0.148790 -7.168514 -4.258881 -3.593698 8.906440 7.038367 -22.002821 120.487377 -78.176126 -73.026924 0.118894 -33.533631 -42.996890 -7.038662 -0.625220 -0.405884 4.952727 -12.713766 8.576542 -136.506885 -74.252618 129.271071 -18.926809 -25.788447 34.449022 -3.358638 -56.133026 3.505776 -36.256793 72.125973 -34.180678 20.391540 34.768898 10.949843 0.062949 0.000625 0.027891 -9.238488 -44.843987 -5.755342 32.424388 75.769351 20.572255 1.507786 -0.611849 9.931860 -0.012684 0.020788 -0.005622
-22.205431 126.554083 73.524321 -174.735479 -31.466638 -2.694443 -2.857933 20.169689 -1.158158 -0.333075 2.547339 -0.089286 -0.548393 4.174868 -0.154255 -2.411051 17.317302 -0.928637 1.447246 18.144040 0.153272 1.490454 -6.616031 -0.167111 -7.220669 -4.252706 -3.608850 8.917497 7.056109 -21.960045 120.843360 -78.090655 -73.471329 0.058317 -33.501824 -42.939314 -6.987740 -0.627906 -0.397838 4.951432 -12.644084 8.577277 -136.608143 -74.259471 129.336056 -18.880523 -25.905042 34.290701 -3.182374 -56.120908 3.300004 -36.515452 72.122757 -34.468732 20.571420 34.756406 11.183413 0.008042 0.013793 0.003564 -9.213374 -44.796314 -5.846557 32.425219 75.744875 20.516787 1.490451 -0.579158 9.981878 -0.018886 0.003962 -0.008369
-22.205917 126.555894 73.528585 -174.668322 -31.495385 -2.693954 -2.863016 20.176502 -1.146945 -0.333324 2.549207 -0.088245 -0.548778 4.177840 -0.152584 -2.410897 17.322814 -0.921339 1.439447 18.124858 0.146217 1.608826 -6.707268 -0.199652 -7.235181 -4.236135 -3.609943 8.873233 7.082012 -21.936337 121.107302 -77.994428 -73.797189 0.099194 -33.518957 -42.929614 -6.964030 -0.623688 -0.388430 4.971025 -12.569007 8.583009 -136.740474 -74.250704 129.422081 -18.840818 -25.982812 34.225000 -3.079984 -56.118863 3.169612 -36.765168 72.111082 -34.721801 20.706898 34.771930 11.320197 -0.005613 0.020417 -0.002488 -9.184022 -44.769653 -5.880916 32.362229 75.748673 20.407627 1.452753 -0.555722 10.045930 -0.018274 -0.008561 -0.008096
